<svg xmlns="http://www.w3.org/2000/svg" viewBox="0 0 17.568 19.83"><path id="icon_alarm" data-name="icon/alarm" d="M7.289,18.33h3a1.5,1.5,0,0,1-3,0Zm-6.73-1a.56.56,0,0,1-.55-.661,3.319,3.319,0,0,1,2.15-2.479V8a6.651,6.651,0,0,1,5.85-6.56.374.374,0,0,1,0-.11V.75a.75.75,0,0,1,1.5,0v.59a.444.444,0,0,1,0,.12h.169a6.791,6.791,0,0,1,5.73,6.76v6a3.32,3.32,0,0,1,2.15,2.45.56.56,0,0,1-.55.661ZM3.659,8v6.22a1.5,1.5,0,0,1-1,1.42,1.757,1.757,0,0,0-.39.19l13.03.05a1.8,1.8,0,0,0-.39-.191,1.5,1.5,0,0,1-1-1.419v-6A5.27,5.27,0,0,0,9.479,3a5.589,5.589,0,0,0-.689-.1A5.13,5.13,0,0,0,3.659,8Z"/></svg>