<svg xmlns="http://www.w3.org/2000/svg" viewBox="0 0 20.018 20.002"><path id="icon_home" data-name="icon/home" d="M19.59,9,11,.41a1.42,1.42,0,0,0-2,0L.41,9a1.42,1.42,0,0,0-.3,1.54,1.4,1.4,0,0,0,1.3.87h.41v7.18A1.41,1.41,0,0,0,3.23,20H7.42a1.41,1.41,0,0,0,1.41-1.41V13.13h2.34v5.46A1.41,1.41,0,0,0,12.58,20H17a1.41,1.41,0,0,0,1.41-1.41V11.41h.21a1.4,1.4,0,0,0,1.3-.87A1.42,1.42,0,0,0,19.59,9Zm-7,2.59H7.42a.13.13,0,0,0-.12.13v6.74H3.35V10a.12.12,0,0,0-.12-.12H1.71L10,1.59l8.29,8.29H17a.12.12,0,0,0-.12.12v8.46H12.7V11.72a.13.13,0,0,0-.12-.13Z" transform="translate(-0.002 0.002)"/></svg>