<svg xmlns="http://www.w3.org/2000/svg" viewBox="0 0 40 40"><g id="icon_tem_40dp" data-name="icon/tem_40dp" transform="translate(-4843 -1823)"><circle id="타원_9" data-name="타원 9" cx="20" cy="20" r="20" transform="translate(4843 1823)" fill="#f2f2f2"/><g id="icon_tem_40dp-2" data-name="icon/tem_40dp" transform="translate(4850.015 1829)"><path id="패스_96" data-name="패스 96" d="M20.254,0a15.425,15.425,0,0,0,1.594.56c1.3.449,2.648.885,3.969,1.3a.846.846,0,0,1,.507.306L22.049,3.6c-.651.228-1.353.481-2.049.651V0Z" transform="translate(-6.993)" fill="#feb454"/><path id="패스_97" data-name="패스 97" d="M16.607,0V4.287h-.1L10.29,2.192a.826.826,0,0,1,.462-.293L16.178.1a.228.228,0,0,0,.228-.1Z" transform="translate(-3.601)" fill="#fedc54"/><path id="패스_98" data-name="패스 98" d="M26.506,33.731a.651.651,0,0,1-.371-.059L20,31.617V21.8a.586.586,0,0,1,.3.059c1.4.468,2.8.943,4.2,1.4.651.221,1.34.488,2.03.651v.13Z" transform="translate(-6.993 -7.616)" fill="#4793fe"/><path id="패스_99" data-name="패스 99" d="M6.5,33.76a.651.651,0,0,1-.371-.065L.645,31.867a.807.807,0,0,1-.651-.917V22.426a.826.826,0,0,1,.156-.546.586.586,0,0,1,.3.078l2.967.989,3.084,1V33.76Z" transform="translate(0 -7.645)" fill="#f80124"/><path id="패스_100" data-name="패스 100" d="M20,5.472c.7-.182,1.366-.436,2.049-.651L26.324,3.39a.735.735,0,0,1,.2.54q0,4.626,0,9.251L22.96,14.365,20,15.328h0V5.472Z" transform="translate(-6.993 -1.185)" fill="#fe8e01"/><path id="패스_101" data-name="패스 101" d="M16.514,5.493v9.85h0a.9.9,0,0,0-.169-.065c-1.3-.442-2.648-.891-3.975-1.3-.781-.26-1.548-.546-2.342-.768V4.1a.859.859,0,0,1,.2-.651l6.226,2.069Z" transform="translate(-3.507 -1.205)" fill="#feb454"/><path id="패스_102" data-name="패스 102" d="M16.477,21.74h0a.091.091,0,0,0,0,.039c0,.072,0,.137,0,.208V31.6L10.4,33.62a.735.735,0,0,1-.371.078V23.9l3.7-1.23Z" transform="translate(-3.51 -7.596)" fill="#a50017"/><path id="패스_103" data-name="패스 103" d="M30,33.76V23.936l5.66-1.874a1.952,1.952,0,0,1,.651-.182.839.839,0,0,1,.156.527v8.614a.755.755,0,0,1-.566.807L30.26,33.714a.488.488,0,0,1-.26.046Z" transform="translate(-10.488 -7.645)" fill="#005ede"/><path id="패스_104" data-name="패스 104" d="M13.057,20.58l-2.745.93L6.59,22.74,3.506,21.718.539,20.749a.586.586,0,0,0-.3-.059.885.885,0,0,1,.494-.319L6.59,18.42c.794.221,1.561.507,2.342.768,1.3.436,2.654.885,3.975,1.3a.9.9,0,0,1,.15.091Z" transform="translate(-0.089 -6.436)" fill="#fe6b6b"/><path id="패스_105" data-name="패스 105" d="M32.855,20.671a1.952,1.952,0,0,0-.651.182L26.537,22.7c-.69-.163-1.353-.429-2.03-.651-1.405-.455-2.8-.93-4.2-1.4A.586.586,0,0,0,20,20.619a.091.091,0,0,1,0-.039l2.96-.976L26.5,18.42l5.855,1.952A.794.794,0,0,1,32.855,20.671Z" transform="translate(-6.992 -6.436)" fill="#8bb8fe"/></g></g></svg>