<svg id="icon_user_40dp" data-name="icon/user_40dp" xmlns="http://www.w3.org/2000/svg" viewBox="0 0 40 40"><rect id="bg" width="40" height="40" fill="none"/><g id="icon_user_40dp-2" data-name="icon/user_40dp" transform="translate(-0.003)"><path id="패스_126" data-name="패스 126" d="M20,0V7.31a8,8,0,0,1,5.14,14.13A14,14,0,0,1,34,34.28,20,20,0,0,0,20,0Z" fill="#fe8900"/><path id="패스_127" data-name="패스 127" d="M14.86,21.44A8,8,0,0,1,20,7.31V0A20,20,0,0,0,6,34.28a14,14,0,0,1,8.86-12.84Z" fill="#fea920"/><path id="패스_128" data-name="패스 128" d="M14.86,21.44A14,14,0,0,0,6,34.28,20,20,0,0,0,20,40V23.31a8,8,0,0,1-5.14-1.87Z" fill="#7985ea"/><path id="패스_129" data-name="패스 129" d="M25.14,21.44A8,8,0,0,1,20,23.31V40a20,20,0,0,0,14-5.718A14,14,0,0,0,25.14,21.44Z" fill="#4b5be5"/><path id="패스_130" data-name="패스 130" d="M12,15.31a8,8,0,0,0,8,8v-16a8,8,0,0,0-8,8Z" fill="#fedaa8"/><path id="패스_131" data-name="패스 131" d="M20,7.31v16a8,8,0,1,0,0-16Z" fill="#fec373"/></g></svg>