<svg id="icon_setting_40dp" data-name="icon/setting_40dp" xmlns="http://www.w3.org/2000/svg" viewBox="0 0 40 40"><circle id="bg" cx="20" cy="20" r="20" fill="#f2f2f2"/><g id="그룹_375" data-name="그룹 375" transform="translate(-4677.727 -1876.728)"><g id="그룹_374" data-name="그룹 374" transform="translate(4684.975 1883.98)"><g id="icon_setting" data-name="icon/setting"><path id="패스_112" data-name="패스 112" d="M22.879,25.464h-.446a.917.917,0,0,1-.522-.828A1.911,1.911,0,0,0,20,22.77V19.445a6.573,6.573,0,0,0,2.051-.318A6.717,6.717,0,0,0,20,6.014V2.689a1.949,1.949,0,0,0,1.49-.79,2.2,2.2,0,0,0,.42-1.165.752.752,0,0,1,.923-.745A13.139,13.139,0,0,1,27.006,1.74a.726.726,0,0,1,.217,1.076c-.089.134-.191.255-.28.382a1.86,1.86,0,0,0,2.3,2.783,5.853,5.853,0,0,0,.7-.471.726.726,0,0,1,1.038.21,13.375,13.375,0,0,1,1.758,4.165.732.732,0,0,1-.58.93,3.738,3.738,0,0,1-.535.083,1.86,1.86,0,0,0-.86,3.293,2.235,2.235,0,0,0,1.223.427.764.764,0,0,1,.752.968,13.935,13.935,0,0,1-1.745,4.146.771.771,0,0,1-.376.306.79.79,0,0,1-.866-.2,2.044,2.044,0,0,0-1.21-.522,1.86,1.86,0,0,0-1.764,2.719,6.222,6.222,0,0,0,.433.637.726.726,0,0,1-.2,1.044,12.018,12.018,0,0,1-2.548,1.274C23.936,25.139,23.407,25.3,22.879,25.464Z" transform="translate(-7.262 0.031)" fill="#b6dff5"/><path id="패스_113" data-name="패스 113" d="M12.738,19.466v3.325a1.911,1.911,0,0,0-1.911,1.821.936.936,0,0,1-.58.873H9.9c-.357-.108-.713-.2-1.064-.318a13.928,13.928,0,0,1-2.911-1.318.8.8,0,0,1-.261-1.363,1.987,1.987,0,0,0,.433-.777,1.809,1.809,0,0,0-.452-1.834,1.777,1.777,0,0,0-1.821-.5,2.051,2.051,0,0,0-.841.459.777.777,0,0,1-1.274-.166,13.3,13.3,0,0,1-1.35-2.9c-.127-.395-.242-.79-.357-1.185v-.4a.943.943,0,0,1,.72-.529l.439-.057a1.866,1.866,0,0,0,1.427-2.49A1.911,1.911,0,0,0,.873,10.836.93.93,0,0,1,0,10.263v-.35c.1-.35.2-.707.312-1.064A14.47,14.47,0,0,1,1.643,5.92a.8.8,0,0,1,1.337-.261,2.134,2.134,0,0,0,.637.388,1.783,1.783,0,0,0,1.936-.306A1.809,1.809,0,0,0,6.12,3.894,2.044,2.044,0,0,0,5.649,3a.79.79,0,0,1,.178-1.274A13.91,13.91,0,0,1,9.776.073.783.783,0,0,1,10.827.85a1.911,1.911,0,0,0,1.911,1.86V6.034h0a6.292,6.292,0,0,0-3.426.981,6.592,6.592,0,0,0-3.28,5.452,6.216,6.216,0,0,0,.911,3.656,6.6,6.6,0,0,0,5.8,3.331Z" transform="translate(0 0.011)" fill="#c9e7f8"/><path id="패스_114" data-name="패스 114" d="M20,9.46a6.717,6.717,0,0,1,2.051,13.113A6.573,6.573,0,0,1,20,22.892V19.911l.395-.045A3.726,3.726,0,0,0,20,12.441V9.466Z" transform="translate(-7.262 -3.415)" fill="#1789fb"/><path id="패스_115" data-name="패스 115" d="M16.168,9.47v2.974h-.127a3.736,3.736,0,0,0,.127,7.471v2.968a6.6,6.6,0,0,1-5.8-3.331,6.216,6.216,0,0,1-.911-3.688,6.592,6.592,0,0,1,3.28-5.42,6.292,6.292,0,0,1,3.426-.974Z" transform="translate(-3.43 -3.419)" fill="#549cfe"/></g></g></g></svg>