<svg xmlns="http://www.w3.org/2000/svg" viewBox="0 0 40.003 40.004"><g id="icon_room_40dp" data-name="icon/room_40dp" transform="translate(0)"><rect id="bg" width="40" height="40" transform="translate(0)" fill="none"/><g id="icon_room_40" data-name="icon/room_40" transform="translate(0.003 0.004)"><path id="패스_90" data-name="패스 90" d="M20,40H18.45c-.07-.1-.18-.07-.28-.08A20.09,20.09,0,0,1,3.09,30.55,19,19,0,0,1,.4,16.27,19.64,19.64,0,0,1,12.07,1.67,18.42,18.42,0,0,1,20,0V14.45l-.09.12c-1.33.73-2.66,1.46-4,2.22a.56.56,0,0,1-.82-.11A4.47,4.47,0,0,0,11,15.38a4.68,4.68,0,0,0-3.79,5.1,4.53,4.53,0,0,0,3.25,3.95,4.49,4.49,0,0,0,4.9-1.34c.48-.5.47-.5,1.07-.14,1.21.71,2.39,1.47,3.63,2.13l.09.12c-.14.16-.08.35-.08.53Q20,32.84,20,40Z" fill="#fc013a"/><path id="패스_91" data-name="패스 91" d="M20,40V25.76c0-.18-.06-.37.08-.53.3.18.6.36.91.52a.39.39,0,0,1,.23.51,3.89,3.89,0,0,0,0,1.36,4.69,4.69,0,0,0,5.55,4A4.54,4.54,0,0,0,30.45,28a4.68,4.68,0,0,0-7.62-4.58.63.63,0,0,1-.9.08A17.561,17.561,0,0,0,20,22.4h0V17.17c.63-.34,1.27-.66,1.88-1a.41.41,0,0,1,.62.08,4.52,4.52,0,0,0,3.94,1.39,4.7,4.7,0,1,0-5.25-4.08c0,.14.06.27-.12.36-.36.17-.71.37-1.07.56V0a17.1,17.1,0,0,1,4.51.5A19.8,19.8,0,0,1,35.32,7.17,19.62,19.62,0,0,1,39.78,17,11.279,11.279,0,0,0,40,18.5v3.12c-.08.05-.07.13-.08.21a16.281,16.281,0,0,1-.44,2.68,19.86,19.86,0,0,1-6.63,10.76A19.66,19.66,0,0,1,23,39.75a7.71,7.71,0,0,0-1.44.22Z" fill="#e40127"/><path id="패스_92" data-name="패스 92" d="M20,22.35h0v2.68c-1.24-.66-2.42-1.42-3.63-2.13-.6-.36-.59-.36-1.07.14a4.49,4.49,0,0,1-4.9,1.34,4.53,4.53,0,0,1-3.25-3.95A4.68,4.68,0,0,1,11,15.38a4.47,4.47,0,0,1,4.17,1.31.56.56,0,0,0,.82.11c1.32-.76,2.65-1.49,4-2.22A.58.58,0,0,1,20,15v2.21l-2.79,1.53c-.79.44-.79.44-.71,1.32a.33.33,0,0,0,.19.31Z" fill="#fff3f8"/><path id="패스_93" data-name="패스 93" d="M20,25.08V22.4a17.56,17.56,0,0,1,1.92,1.13.63.63,0,0,0,.9-.08A4.68,4.68,0,0,1,30.45,28a4.54,4.54,0,0,1-3.7,3.58,4.69,4.69,0,0,1-5.55-4,3.89,3.89,0,0,1,0-1.36.39.39,0,0,0-.23-.51c-.31-.16-.61-.34-.91-.52Z" fill="#ffd2df"/><path id="패스_94" data-name="패스 94" d="M20,17.17V15.02a.58.58,0,0,0-.09-.44l.09-.12c.36-.19.71-.39,1.07-.56.18-.09.14-.22.12-.36a4.7,4.7,0,1,1,5.25,4.08,4.52,4.52,0,0,1-3.94-1.39.41.41,0,0,0-.62-.08C21.28,16.51,20.64,16.83,20,17.17Z" fill="#ffd2df"/><path id="패스_95" data-name="패스 95" d="M20,22.35l-3.31-2a.33.33,0,0,1-.19-.31c-.08-.88-.08-.88.71-1.32L20,17.23Z" fill="#fc013a"/></g></g></svg>