<svg xmlns="http://www.w3.org/2000/svg" viewBox="0 0 20.014 15.871">
  <g id="icon_mypage" data-name="icon/mypage" transform="translate(0.054 0.028)">
    <path id="패스_84" data-name="패스 84" d="M18.12,6.05a1.91,1.91,0,0,0-.76.15,1.357,1.357,0,0,0-.07-.25,7.66,7.66,0,0,0-14.59,0,2.76,2.76,0,0,0-.08.27,1.85,1.85,0,0,0-.74-.15,1.89,1.89,0,1,0,.59,3.67,7.66,7.66,0,0,0,15,0,1.77,1.77,0,0,0,.61.1,1.88,1.88,0,0,0,0-3.76Z" fill="#fdd6c6"/>
    <path id="패스_85" data-name="패스 85" d="M11.05,9.55a1.53,1.53,0,0,0-.63-.15,1.21,1.21,0,0,0-.59.16.25.25,0,0,0-.09.35.26.26,0,0,0,.36.1h.65a.27.27,0,0,0,.2,0,.3.3,0,0,0,.15-.12.27.27,0,0,0-.09-.36Z" fill="#0e0c0c"/>
    <path id="패스_86" data-name="패스 86" d="M11.68,10.36a2.55,2.55,0,0,1-.57.33,1.89,1.89,0,0,1-.34.09,1.48,1.48,0,0,1-.31,0,1.73,1.73,0,0,1-.63-.1,1.85,1.85,0,0,1-.29-.13,3.62,3.62,0,0,1-.33-.2.25.25,0,0,0-.35.09.27.27,0,0,0,.09.36,2.45,2.45,0,0,0,1.54.5,2.56,2.56,0,0,0,1.56-.6.262.262,0,1,0-.37-.37Z" fill="#0e0c0c"/>
    <circle id="타원_5" data-name="타원 5" cx="1.59" cy="1.59" r="1.59" transform="translate(13.42 8.36)" fill="#fb9578"/>
    <circle id="타원_6" data-name="타원 6" cx="1.59" cy="1.59" r="1.59" transform="translate(3.38 8.36)" fill="#fb9578"/>
    <circle id="타원_7" data-name="타원 7" cx="0.48" cy="0.48" r="0.48" transform="translate(7.86 9.28)" fill="#0e0c0c"/>
    <circle id="타원_8" data-name="타원 8" cx="0.48" cy="0.48" r="0.48" transform="translate(12.13 9.27)" fill="#0e0c0c"/>
    <path id="패스_87" data-name="패스 87" d="M8.23.5c-.34.29-1.31,2,.78,3.24A3.55,3.55,0,0,0,12,4c.18-.06.39-.17.4-.36s-.19-.32-.32-.47A1.46,1.46,0,0,1,12,1.81a1.53,1.53,0,0,0,.08-.7,1.22,1.22,0,0,0-.25-.46A3,3,0,0,0,8.23.5Z" fill="#bf8b6b"/>
  </g>
</svg>