<svg xmlns="http://www.w3.org/2000/svg" viewBox="0 0 20.026 20.009"><g id="icon_setting" data-name="icon/setting" transform="translate(0 0.009)"><path id="패스_88" data-name="패스 88" d="M20,9.45v-.1a2,2,0,0,0-1-1.72,2.22,2.22,0,0,0-1.28-.29c-.08-.24-.18-.47-.28-.72a1.36,1.36,0,0,0-.09-.18,1,1,0,0,1,.16-.18,2,2,0,0,0,0-2.87c-.38-.4-.68-.7-1-1a2,2,0,0,0-2.71,0,1.79,1.79,0,0,0-.23.25l-.35-.16a1.21,1.21,0,0,0-.35-.13c-.2,0-.26-.07-.26-.41A2,2,0,0,0,11,.05,10.08,10.08,0,0,0,9.5,0H9.32A2,2,0,0,0,7.38,1.65a3.39,3.39,0,0,0,0,.64H7.29a2.87,2.87,0,0,0-.6.26c-.17.11-.23.11-.43-.09a2,2,0,0,0-2.81,0c-.37.34-.69.67-1,1a1.93,1.93,0,0,0-.48,1.75,2.18,2.18,0,0,0,.72,1.22c-.11.21-.2.44-.3.68s-.08.21-.08.22H2A2.08,2.08,0,0,0,0,9v2a2.05,2.05,0,0,0,2,1.65h.21a2.09,2.09,0,0,1,.1.23l.25.6.05.09-.09.09a2,2,0,0,0-.63,1.12,1.93,1.93,0,0,0,.48,1.76,13.446,13.446,0,0,0,1,1,2,2,0,0,0,2.83,0l.11-.11s.07-.09.05-.1l.1.05.16.09.13.05c.18.07.35.15.55.21A2.14,2.14,0,0,0,7.62,19a2,2,0,0,0,1.26.95L9,20h2.08a2,2,0,0,0,1.52-1.48,2.94,2.94,0,0,0,.07-.65v-.11c.23-.08.47-.17.7-.27l.21-.09a1.42,1.42,0,0,1,.19.16,2,2,0,0,0,2.85,0c.4-.37.71-.68,1-1a2,2,0,0,0,.48-1.74,2.13,2.13,0,0,0-.73-1.23,4.83,4.83,0,0,0,.23-.52l.05-.12a1.27,1.27,0,0,0,.06-.18v-.1H18a2,2,0,0,0,2-1.72A10.64,10.64,0,0,0,20,9.45Zm-1.65,1.13a.39.39,0,0,1-.42.42h-.78a.84.84,0,0,0-.85.66,7,7,0,0,1-.66,1.6.82.82,0,0,0,.15,1.1l.22.21.3.31a.4.4,0,0,1,0,.61l-.81.81a.39.39,0,0,1-.61,0c-.1-.09-.19-.19-.28-.28l-.23-.22a.84.84,0,0,0-1.13-.16,6.48,6.48,0,0,1-1.55.64.84.84,0,0,0-.69.92v.72a.39.39,0,0,1-.42.42H9.41A.38.38,0,0,1,9,17.93c0-.14,0-.29,0-.44v-.31a.84.84,0,0,0-.66-.89,7.2,7.2,0,0,1-1.59-.66,1,1,0,0,0-.48-.14.89.89,0,0,0-.63.3l-.2.2-.32.32a.4.4,0,0,1-.6,0c-.28-.27-.55-.55-.82-.83a.38.38,0,0,1,0-.59A4,4,0,0,1,4,14.6l.24-.25a.82.82,0,0,0,.15-1.08,6.93,6.93,0,0,1-.67-1.62A.83.83,0,0,0,2.86,11h-.8a.38.38,0,0,1-.4-.41q0-.59,0-1.17A.38.38,0,0,1,2.07,9h.78a.83.83,0,0,0,.85-.66,7,7,0,0,1,.67-1.6.82.82,0,0,0-.16-1.1L4,5.39l-.27-.27a.4.4,0,0,1,0-.61l.82-.82a.39.39,0,0,1,.6,0c.1.09.19.19.28.28l.26.26a.81.81,0,0,0,1.06.15,7.29,7.29,0,0,1,1.6-.68A.82.82,0,0,0,9,2.85V2.07a.39.39,0,0,1,.43-.41H10.6a.39.39,0,0,1,.41.4v.78a.84.84,0,0,0,.67.87,6.91,6.91,0,0,1,1.58.65.83.83,0,0,0,1.11-.15L14.6,4a4,4,0,0,1,.29-.29.38.38,0,0,1,.59,0l.83.83a.39.39,0,0,1,0,.59l-.3.3-.25.25a.81.81,0,0,0-.14,1.06,6.75,6.75,0,0,1,.67,1.63.84.84,0,0,0,.86.65h.78a.39.39,0,0,1,.41.41Z"/><path id="패스_89" data-name="패스 89" d="M10,5.28a4.72,4.72,0,1,0,0,9.44h0A4.73,4.73,0,0,0,14.72,10a4.65,4.65,0,0,0-1.37-3.35A4.71,4.71,0,0,0,10,5.28Zm2.12,6.85A3,3,0,0,1,10,13h0a3,3,0,1,1,0-6h0a3.005,3.005,0,0,1,2.12,5.13Z"/></g></svg>