<svg xmlns="http://www.w3.org/2000/svg" width="70" height="66.996" viewBox="0 0 70 66.996">
  <g id="img_firework" data-name="img/firework" transform="translate(0 -0.004)">
    <path id="패스_175" data-name="패스 175" d="M70,14.52a1.42,1.42,0,0,1-1.29,1A3.62,3.62,0,0,0,65.55,19c-.16,1-.28,2.05-.47,3.06-.49,2.56-2,3.75-4.6,3.69a11.5,11.5,0,0,0-3.36.18,3.09,3.09,0,0,0-2.57,2.32.87.87,0,0,1-1.08.64,1,1,0,0,1-.72-1.14,4.49,4.49,0,0,1,2.88-3.33,9,9,0,0,1,3.59-.6,12,12,0,0,0,2.24,0,2,2,0,0,0,1.64-1.48,18.72,18.72,0,0,0,.45-2.78,8.68,8.68,0,0,1,1-3.23,5.65,5.65,0,0,1,4.44-2.7c.32-.05.56.17.83.3Z" fill="#f8b735"/>
    <path id="패스_176" data-name="패스 176" d="M27.52,67a2.47,2.47,0,0,1-2.34-3c.22-2.62.56-5.23.85-7.84a2.68,2.68,0,0,0,3.57-1,2.66,2.66,0,0,1,0,.28c-.24,2.41-.5,4.82-.72,7.23a22.09,22.09,0,0,0-.22,3.81.3.3,0,0,0,0,.1Z" fill="#ee2336"/>
    <path id="패스_177" data-name="패스 177" d="M28.69,66.45a22.09,22.09,0,0,1,.22-3.81c.22-2.41.48-4.82.72-7.23a2.66,2.66,0,0,0,0-.28A3.05,3.05,0,0,0,29.82,53a.88.88,0,0,0,.13-.55c.33-2.88.64-5.76,1-8.64a1.94,1.94,0,0,0,0-.34l.16-.26a5.1,5.1,0,0,0,.7-7.08l-.07-.22a52,52,0,0,0,.61-5.58l.62.28,6.5,3.1.06.09a.61.61,0,0,1,0,.38,22.75,22.75,0,0,0-1,3.89,2.26,2.26,0,0,0-.49,3.83,20.56,20.56,0,0,0,0,3.42,12.79,12.79,0,0,0,.34,2.76c-.19.08-.38.17-.58.24a5.22,5.22,0,0,0-2.81,6.9A5.48,5.48,0,0,0,37.55,58l-8.09,8A2,2,0,0,1,28.69,66.45Z" fill="#fb3842"/>
    <path id="패스_178" data-name="패스 178" d="M38.22,48.09a12.79,12.79,0,0,1-.34-2.76,20.56,20.56,0,0,1,0-3.42,2.25,2.25,0,0,0,3.63-1.63c.09-1.68-1.39-2.72-3.14-2.2a22.75,22.75,0,0,1,1-3.89.61.61,0,0,0,0-.38c.19.08.39.16.57.25l14,6.76c.21.1.42.18.64.26a26,26,0,0,1-2.21,2.24c-2.57,2.56-5.16,5.09-7.74,7.64a2.6,2.6,0,0,1-.31.25,4.91,4.91,0,0,0-.35-.78,5.3,5.3,0,0,0-5.75-2.34Z" fill="#fb5162"/>
    <path id="패스_179" data-name="패스 179" d="M43,27.09a1,1,0,0,1,.53.19l14.74,7.11c1.11.54,1.58,1.28,1.43,2.23a2.088,2.088,0,0,1-2.12,1.71,9.91,9.91,0,0,1-1.43-.57L41.84,30.84,41,30.47a.21.21,0,0,1,0-.1c.3-.55.58-1.11.91-1.64A7.72,7.72,0,0,1,43,27.09Z" fill="#72d0f0"/>
    <path id="패스_180" data-name="패스 180" d="M41,30.47l.83.37,14.32,6.92a9.91,9.91,0,0,0,1.43.57,39.468,39.468,0,0,1-2.89,2.75c-.22-.08-.43-.16-.64-.26L40,34.06c-.18-.09-.38-.17-.57-.25l-.06-.09c.28-.12.31-.39.41-.64A12.55,12.55,0,0,1,41,30.47Z" fill="#fbd17c"/>
    <path id="패스_181" data-name="패스 181" d="M38.22,48.09a5.3,5.3,0,0,1,5.87,2.34,4.909,4.909,0,0,1,.35.78c-1.36,1.48-2.83,2.85-4.27,4.25-.86.85-1.68,1.75-2.62,2.52a5.48,5.48,0,0,1-2.72-2.75,5.22,5.22,0,0,1,2.81-6.9C37.84,48.26,38,48.17,38.22,48.09Z" fill="#fec854"/>
    <path id="패스_182" data-name="패스 182" d="M42.35,1.81a5.32,5.32,0,0,1-1.21,5.65c-.7.83-1.48,1.59-2.22,2.39a2.25,2.25,0,0,0-.11,3.46,12.17,12.17,0,0,1,2.61,4.13,4.71,4.71,0,0,1-.5,4.13,1.58,1.58,0,0,1-1,.75,1,1,0,0,1-1-.39A.65.65,0,0,1,39,21c1.43-1.65.76-3.2-.18-4.73-.56-.92-1.4-1.63-2-2.55A3.86,3.86,0,0,1,37,9.2a22.369,22.369,0,0,1,2.14-2.32,10.14,10.14,0,0,0,1-1.18,3.55,3.55,0,0,0,.21-3.76c-.06-.14-.14-.27-.2-.41C39.87.86,40,.35,40.51.1s1,0,1.35.61C42.05,1.06,42.19,1.44,42.35,1.81Z" fill="#f8b735"/>
    <path id="패스_183" data-name="패스 183" d="M56.27,6.61a7.82,7.82,0,0,0-3.61,2.63,5.1,5.1,0,0,0-.83,4.14,12.8,12.8,0,0,1,.39,3.75,8.76,8.76,0,0,1-2.92,5.5c-.23.21-.47.4-.7.6-.56.46-1.1.47-1.48,0s-.31-1,.28-1.48a9,9,0,0,0,2.23-2.6,6.32,6.32,0,0,0,.46-4.84,7.36,7.36,0,0,1,3.37-8.42A12.12,12.12,0,0,1,56.3,4.57a1,1,0,0,1,1.39.53c.19.53-.11,1-.77,1.28Z" fill="#f8b735"/>
    <path id="패스_184" data-name="패스 184" d="M43,27.09a7.72,7.72,0,0,0-1.13,1.64c-.33.53-.61,1.09-.91,1.64l-3.2-1.54-5-2.35-.09-.09a4,4,0,0,0-.21-.47,1.82,1.82,0,0,1,.81-2.63,1.39,1.39,0,0,0,.72-.52Z" fill="#57b9e4"/>
    <path id="패스_185" data-name="패스 185" d="M31.68,35.92l.07.22a1,1,0,0,0-.08.22c-.18,1.72-.4,3.44-.54,5.16a4.63,4.63,0,0,0-.08,1.7l-.16.26a6,6,0,0,1-3.63,1.11,13.769,13.769,0,0,1,.2-2.31c.26-2.59.54-5.17.82-7.76a2.24,2.24,0,0,1,.1-.37,5.27,5.27,0,0,1,3.3,1.77Z" fill="#f8b14b"/>
    <path id="패스_186" data-name="패스 186" d="M27.26,44.59a6,6,0,0,0,3.63-1.11,1.94,1.94,0,0,1,0,.34c-.32,2.88-.63,5.76-1,8.64a.88.88,0,0,1-.13.55c-.82-1.56-1.94-2.12-3.3-1.65Z" fill="#ee2336"/>
    <path id="패스_187" data-name="패스 187" d="M31.68,35.92a5.27,5.27,0,0,0-3.3-1.77c.16-1.83.32-3.66.6-5.48,1.06.59,2.15,1.1,3.26,1.58v.09a52,52,0,0,1-.56,5.58Z" fill="#ee2336"/>
    <path id="패스_188" data-name="패스 188" d="M26.52,51.36c1.36-.47,2.48.09,3.3,1.65a3.05,3.05,0,0,1-.22,2.12,2.68,2.68,0,0,1-3.57,1C26.11,54.52,26.31,52.94,26.52,51.36Z" fill="#f8af4b"/>
    <path id="패스_189" data-name="패스 189" d="M34.05,22.77a1.39,1.39,0,0,1-.72.52,1.82,1.82,0,0,0-.81,2.63,4,4,0,0,1,.21.47,22.629,22.629,0,0,1-3.37-1.7,2,2,0,0,1-.18-2.48,1.86,1.86,0,0,1,2.21-.74,16,16,0,0,1,2.66,1.3Z" fill="#36a9d0"/>
    <path id="패스_190" data-name="패스 190" d="M29.36,24.69a22.63,22.63,0,0,0,3.37,1.7l.09.09A5.41,5.41,0,0,0,32.56,28a9.75,9.75,0,0,1-.32,2.22c-1.11-.48-2.2-1-3.26-1.58A37.951,37.951,0,0,1,29.36,24.69Z" fill="#f8b14b"/>
    <path id="패스_191" data-name="패스 191" d="M60.34,12.64a1.72,1.72,0,0,1-1,2.2,1.74,1.74,0,0,1-2.23-1.08,1.72,1.72,0,0,1,1.08-2.17,1.7,1.7,0,0,1,2.15,1.05Z" fill="#06cdb4"/>
    <path id="패스_192" data-name="패스 192" d="M33.1,14.81A1.66,1.66,0,0,1,32,17a1.72,1.72,0,0,1-2.18-1.08,1.79,1.79,0,0,1,1.09-2.19,1.71,1.71,0,0,1,2.19,1.08Z" fill="#fcc956"/>
    <path id="패스_193" data-name="패스 193" d="M34.07,8.9a10.65,10.65,0,0,1,.29,1.1.9.9,0,0,1-.62,1.08.91.91,0,0,1-1.14-.53,9.53,9.53,0,0,1-.62-2,.86.86,0,0,1,.64-1A.87.87,0,0,1,33.73,8a7.14,7.14,0,0,1,.32.92Z" fill="#06cdb4"/>
    <path id="패스_194" data-name="패스 194" d="M60.85,31.43a9.014,9.014,0,0,1-1,.33.92.92,0,0,1-1.1-.6A.9.9,0,0,1,59.23,30a9.2,9.2,0,0,1,2-.76.83.83,0,0,1,1,.6A.86.86,0,0,1,61.85,31C61.53,31.17,61.19,31.28,60.85,31.43Z" fill="#06cdb4"/>
    <path id="패스_195" data-name="패스 195" d="M45.31,9.58a4.26,4.26,0,0,1-.76.26.9.9,0,0,1-1.1-.58.85.85,0,0,1,.41-1.12,8.33,8.33,0,0,1,2.08-.79.83.83,0,0,1,1,.59.84.84,0,0,1-.41,1.12c-.39.21-.8.37-1.2.55Z" fill="#57b9e4"/>
    <path id="패스_196" data-name="패스 196" d="M36.13,5.16a1.21,1.21,0,0,1-1.55-.71,1.25,1.25,0,0,1,.76-1.58,1.23,1.23,0,0,1,1.52.77,1.18,1.18,0,0,1-.73,1.52Z" fill="#fe4f52"/>
    <path id="패스_197" data-name="패스 197" d="M46.64,16.73a1.23,1.23,0,0,1-1.56-.7,1.215,1.215,0,1,1,2.28-.84,1.2,1.2,0,0,1-.72,1.54Z" fill="#fe4f52"/>
    <path id="패스_198" data-name="패스 198" d="M32.24,30.25A9.75,9.75,0,0,0,32.56,28a5.41,5.41,0,0,1,.26-1.55l5,2.35L41,30.37a.21.21,0,0,0,0,.1,12.55,12.55,0,0,0-1.19,2.61c-.1.25-.13.52-.41.64l-6.5-3.1-.62-.28Z" fill="#fcc956"/>
    <path id="패스_199" data-name="패스 199" d="M38.39,38.08c1.75-.52,3.23.52,3.14,2.2a2.25,2.25,0,1,1-3.14-2.2Z" fill="#fec754"/>
    <path id="패스_200" data-name="패스 200" d="M31.05,43.22a4.63,4.63,0,0,1,.08-1.7c.14-1.72.36-3.44.54-5.16a1,1,0,0,1,.08-.22,5.1,5.1,0,0,1-.7,7.08Z" fill="#fec754"/>
    <path id="패스_201" data-name="패스 201" d="M0,33.38A.75.75,0,0,0,.57,34,1.85,1.85,0,0,1,1.9,36c0,.53,0,1.06,0,1.58a2.08,2.08,0,0,0,2,2.23,5.73,5.73,0,0,1,1.69.36,1.58,1.58,0,0,1,1.12,1.37.42.42,0,0,0,.49.4.48.48,0,0,0,.45-.51A2.26,2.26,0,0,0,6.48,39.5a4.58,4.58,0,0,0-1.77-.59,5.49,5.49,0,0,1-1.12-.2,1,1,0,0,1-.71-.88,8.53,8.53,0,0,1,0-1.43,4.51,4.51,0,0,0-.23-1.71A2.88,2.88,0,0,0,.61,33a.826.826,0,0,0-.44.08Z" fill="#ffdea4"/>
    <path id="패스_202" data-name="패스 202" d="M17.33,63.2a1.26,1.26,0,0,0,1.42-1.34c.1-1.34.13-2.68.19-4a1.38,1.38,0,0,1-1.73-.78.7.7,0,0,0,0,.14c-.07,1.23-.13,2.47-.21,3.71a10.54,10.54,0,0,1-.19,1.94h0Z" fill="#f45669"/>
    <path id="패스_203" data-name="패스 203" d="M16.78,62.85A10.54,10.54,0,0,0,17,60.91c.08-1.24.14-2.48.21-3.71a.7.7,0,0,1,0-.14A1.52,1.52,0,0,1,17.27,56a.45.45,0,0,1,0-.28c.07-1.48.13-3,.2-4.45a.9.9,0,0,1,0-.16v-.15a2.6,2.6,0,0,1,.2-3.63l.05-.11a27.37,27.37,0,0,1,.13-2.86l-.33.09-3.53,1.06h0a.34.34,0,0,0,0,.2,11.57,11.57,0,0,1,.21,2,1.15,1.15,0,0,1,0,2,11.11,11.11,0,0,1-.26,1.73,6.67,6.67,0,0,1-.39,1.37l.28.17a2.66,2.66,0,0,1,.87,3.7,2.82,2.82,0,0,1-1.7,1.2q1.74,2.32,3.46,4.67a1.27,1.27,0,0,0,.32.3Z" fill="#f98791"/>
    <path id="패스_204" data-name="패스 204" d="M13.41,52.83a6.67,6.67,0,0,0,.39-1.37,11.11,11.11,0,0,0,.26-1.73,1.15,1.15,0,1,1,0-2,11.57,11.57,0,0,0-.21-2,.34.34,0,0,1,0-.2l-.31.08L6,47.91a2.09,2.09,0,0,1-.34.08A13.56,13.56,0,0,0,6.6,49.3l3.31,4.46c0,.06.09.1.13.15.08-.12.15-.25.24-.36a2.71,2.71,0,0,1,3.13-.72Z" fill="#f4aeb9"/>
    <path id="패스_205" data-name="패스 205" d="M12.65,41.84a.56.56,0,0,0-.29.06l-8,2.43c-.6.19-.9.52-.9,1a1.032,1.032,0,0,0,.94,1,4.91,4.91,0,0,0,.76-.17l7.78-2.37.45-.12v-.05c-.11-.3-.21-.6-.34-.9a4.53,4.53,0,0,0-.4-.88Z" fill="#aae7f7"/>
    <path id="패스_206" data-name="패스 206" d="M13.39,43.71l-.45.12L5.16,46.2a4.91,4.91,0,0,1-.76.17c.4.55.79,1.11,1.24,1.62A2.09,2.09,0,0,0,6,47.91l7.61-2.31.31-.08h0c-.13-.09-.13-.23-.16-.36a6.28,6.28,0,0,0-.37-1.45Z" fill="#ffdea4"/>
    <path id="패스_207" data-name="패스 207" d="M13.41,52.83a2.71,2.71,0,0,0-3.15.72c-.09.11-.16.24-.24.36.57.86,1.21,1.66,1.83,2.49.37.49.71,1,1.12,1.48a2.82,2.82,0,0,0,1.59-1.18,2.66,2.66,0,0,0-.87-3.7Z" fill="#ffdea4"/>
    <path id="패스_208" data-name="패스 208" d="M15,29.13a2.74,2.74,0,0,0,.17,2.95c.29.47.63.92.93,1.38a1.14,1.14,0,0,1-.21,1.75A6.23,6.23,0,0,0,14.2,37.1a2.39,2.39,0,0,0-.07,2.12.86.86,0,0,0,.44.46.5.5,0,0,0,.54-.12.33.33,0,0,0,.06-.45c-.59-1-.13-1.68.46-2.38.36-.42.84-.71,1.19-1.13a2,2,0,0,0,.26-2.32,10.82,10.82,0,0,0-.9-1.34,5.11,5.11,0,0,1-.41-.68A1.83,1.83,0,0,1,16,29.35a1.33,1.33,0,0,0,.14-.19c.19-.31.17-.59-.07-.75s-.51-.09-.73.2A3.165,3.165,0,0,0,15,29.13Z" fill="#ffdea4"/>
    <path id="패스_209" data-name="패스 209" d="M7.56,30.46a4,4,0,0,1,1.61,1.61,2.63,2.63,0,0,1,.1,2.16,6.65,6.65,0,0,0-.5,1.86,4.52,4.52,0,0,0,1.05,3c.1.12.2.24.31.35.24.28.51.33.74.14s.23-.48,0-.77a4.89,4.89,0,0,1-.92-1.49,3.24,3.24,0,0,1,.15-2.48,3.77,3.77,0,0,0-1-4.52,6,6,0,0,0-1.33-.9.51.51,0,0,0-.74.16c-.14.25,0,.52.28.7Z" fill="#ffdea4"/>
    <path id="패스_210" data-name="패스 210" d="M12.65,41.84a4.53,4.53,0,0,1,.43.92c.13.3.23.6.34.9l1.73-.52,2.69-.8h.05l.14-.22a.94.94,0,0,0-.2-1.4.69.69,0,0,1-.32-.31Z" fill="#86d6f2"/>
    <path id="패스_211" data-name="패스 211" d="M17.67,47.19l-.05.11a.5.5,0,0,1,0,.12c0,.88-.06,1.77-.13,2.65a2.28,2.28,0,0,1-.09.86v.15a3.13,3.13,0,0,0,1.75.84,6.69,6.69,0,0,0,.08-1.18c.08-1.33.14-2.66.2-4a1.23,1.23,0,0,0,0-.2,2.77,2.77,0,0,0-1.76.65Z" fill="#f9d395"/>
    <path id="패스_212" data-name="패스 212" d="M19.22,51.92a3.13,3.13,0,0,1-1.75-.84.9.9,0,0,0,0,.16c-.07,1.49-.13,3-.2,4.45a.45.45,0,0,0,0,.28,1.31,1.31,0,0,1,1.79-.57Z" fill="#f45669"/>
    <path id="패스_213" data-name="패스 213" d="M17.67,47.19a2.77,2.77,0,0,1,1.81-.63c.06-.94.12-1.87.13-2.81-.58.21-1.18.38-1.77.54h0A27.37,27.37,0,0,0,17.67,47.19Z" fill="#f45669"/>
    <path id="패스_214" data-name="패스 214" d="M19.06,55.4a1.31,1.31,0,0,0-1.79.57,1.52,1.52,0,0,0-.06,1.09,1.38,1.38,0,0,0,1.73.78C19,57,19.05,56.21,19.06,55.4Z" fill="#f9d395"/>
    <path id="패스_215" data-name="패스 215" d="M17.51,40.37a.69.69,0,0,0,.32.31.94.94,0,0,1,.2,1.4l-.14.22a11.94,11.94,0,0,0,1.84-.59A1,1,0,0,0,20,40.47a.94.94,0,0,0-1-.55A8.12,8.12,0,0,0,17.51,40.37Z" fill="#63ceea"/>
    <path id="패스_216" data-name="패스 216" d="M19.73,41.71a11.94,11.94,0,0,1-1.84.59h-.05a2.68,2.68,0,0,1,0,.8,4.43,4.43,0,0,0,0,1.15c.59-.16,1.19-.33,1.77-.54C19.69,43.07,19.7,42.39,19.73,41.71Z" fill="#f9b964"/>
    <path id="패스_217" data-name="패스 217" d="M5,33.19a.88.88,0,0,0,.35,1.19A.9.9,0,0,0,6.59,34a.89.89,0,0,0-.38-1.19A.86.86,0,0,0,5,33.19Z" fill="#b0ede4"/>
    <path id="패스_218" data-name="패스 218" d="M18.62,36.42A.84.84,0,0,0,19,37.59a.9.9,0,0,0,1.19-.37.92.92,0,0,0-.38-1.2.87.87,0,0,0-1.19.4Z" fill="#ffdea4"/>
    <path id="패스_219" data-name="패스 219" d="M18.59,33.36a5.149,5.149,0,0,0-.23.54.47.47,0,0,0,.84.41,5.1,5.1,0,0,0,.47-1,.44.44,0,0,0-.24-.56.45.45,0,0,0-.6.15,3,3,0,0,0-.23.44Z" fill="#b0ede4"/>
    <path id="패스_220" data-name="패스 220" d="M3.29,42.63a5.191,5.191,0,0,0,.47.25.47.47,0,0,0,.6-.22.46.46,0,0,0-.14-.6,4.61,4.61,0,0,0-1-.54.42.42,0,0,0-.57.22.45.45,0,0,0,.14.6C3,42.45,3.13,42.53,3.29,42.63Z" fill="#b0ede4"/>
    <path id="패스_221" data-name="패스 221" d="M12.86,32.82a1.78,1.78,0,0,0,.36.19.45.45,0,0,0,.6-.2.43.43,0,0,0-.12-.6,3.72,3.72,0,0,0-1-.56.41.41,0,0,0-.54.22.42.42,0,0,0,.12.59c.18.14.37.25.56.37Z" fill="#aae7f7"/>
    <path id="패스_222" data-name="패스 222" d="M17.84,31.31a.626.626,0,1,0-.25-.83.61.61,0,0,0,.25.83Z" fill="#f4aeb9"/>
    <path id="패스_223" data-name="패스 223" d="M11.63,36.32a.62.62,0,0,0,.84-.22.65.65,0,0,0-.25-.86.63.63,0,0,0-.84.25.6.6,0,0,0,.25.83Z" fill="#f4aeb9"/>
    <path id="패스_224" data-name="패스 224" d="M17.84,44.29a4.43,4.43,0,0,1,0-1.15,2.68,2.68,0,0,0,0-.8l-2.69.8-1.73.52v.05a6.28,6.28,0,0,1,.39,1.41.348.348,0,0,0,.16.36l3.53-1.06.33-.09S17.82,44.3,17.84,44.29Z" fill="#fcd077"/>
    <path id="패스_225" data-name="패스 225" d="M14.11,47.76a1.15,1.15,0,1,0,.582,1,1.15,1.15,0,0,0-.582-1Z" fill="#ffdea4"/>
    <path id="패스_226" data-name="패스 226" d="M17.42,50.93a2.28,2.28,0,0,0,.09-.86c.07-.88.09-1.77.13-2.65a.5.5,0,0,0,0-.12,2.6,2.6,0,0,0-.22,3.63Z" fill="#ffdea4"/>
  </g>
</svg>
