<svg id="img_Garlander" data-name="img/Garlander" xmlns="http://www.w3.org/2000/svg" width="280" height="25.115" viewBox="0 0 280 25.115"><path id="패스_132" data-name="패스 132" d="M15.37,4.84,13.28,16.5a.5.5,0,0,1,.28.16l6.55,7.65h.05l3.23-18Z" transform="translate(-0.125 0.005)" fill="#fb3943"/><path id="패스_133" data-name="패스 133" d="M7.35,3.4,4.11,21.456h0l8.89-4.9a.49.49,0,0,1,.31-.05L15.37,4.841Z" transform="translate(-0.125 -0.001)" fill="#ee2336"/><path id="패스_134" data-name="패스 134" d="M127.17,4.84l2.09,11.66a.47.47,0,0,0-.28.16l-6.56,7.65h0l-3.23-18Z" transform="translate(-0.093 0.005)" fill="#ff97a1"/><path id="패스_135" data-name="패스 135" d="M135.19,3.4l3.23,18.056h0l-8.81-4.912a.49.49,0,0,0-.31-.05L127.17,4.841Z" transform="translate(-0.136 -0.001)" fill="#ff697f"/><path id="패스_136" data-name="패스 136" d="M35.47,12.39,28.82,6.78h-1a.51.51,0,0,0-.51.51v4.39l8.15,6.87Z" transform="translate(-0.125 0.002)" fill="#f89730"/><path id="패스_137" data-name="패스 137" d="M27.32,24.24a.51.51,0,0,0,.51.51h7.63l-8.14-6.87Z" transform="translate(-0.125 0.005)" fill="#f89730"/><path id="패스_138" data-name="패스 138" d="M35.47,6.78H28.82l6.65,5.61Z" transform="translate(-0.125 0.001)" fill="#e95e18"/><path id="패스_139" data-name="패스 139" d="M27.32,11.68v6.2l8.14,6.87h0v-6.2Z" transform="translate(-0.125 0.005)" fill="#e95e18"/><path id="패스_140" data-name="패스 140" d="M43.62,24.24v-5l-8.15-6.87v6.16l7.34,6.2h.3a.51.51,0,0,0,.51-.49Z" transform="translate(-0.125 0.03)" fill="#fec955"/><path id="패스_141" data-name="패스 141" d="M43.62,7.29a.51.51,0,0,0-.51-.51h-7l7.47,6.29Z" transform="translate(-0.125 0.001)" fill="#fec955"/><path id="패스_142" data-name="패스 142" d="M43.62,19.26V13.07L36.15,6.78h-.68v5.61Z" transform="translate(-0.125 0.002)" fill="#f89841"/><path id="패스_143" data-name="패스 143" d="M35.47,24.75h7.34l-7.34-6.2Z" transform="translate(-0.125 0.005)" fill="#f89841"/><path id="패스_144" data-name="패스 144" d="M47.55,6.39,58.88,22.95,60.07,18,51.61,5.64Z" transform="translate(-0.112 0.005)" fill="#0ebaa1"/><path id="패스_145" data-name="패스 145" d="M51.61,5.64,60.07,18,63.58,3.44Z" transform="translate(-0.111 -0.001)" fill="#18dcbf"/><path id="패스_146" data-name="패스 146" d="M97.98,6.78l8.15,18.33,2.07-4.65L102.11,6.78Z" transform="translate(-0.099 0.005)" fill="#808cdc"/><path id="패스_147" data-name="패스 147" d="M102.11,6.78l6.09,13.68,6.08-13.68Z" transform="translate(-0.098 0.003)" fill="#959fee"/><path id="패스_148" data-name="패스 148" d="M92.69,6.07,85.17,4.73l-3.23,18,7.52,1.35a.5.5,0,0,0,.59-.41l3.06-17a.52.52,0,0,0-.42-.6Z" transform="translate(-0.103 0.005)" fill="#0298fe"/><path id="패스_149" data-name="패스 149" d="M81.2,4a3.125,3.125,0,0,1-4.82,3.59L74,20.84a.52.52,0,0,0,.41.59l7.52,1.34,3.23-18Z" transform="translate(-0.105 0.005)" fill="#289dd7"/><path id="패스_150" data-name="패스 150" d="M81.36,5.65A3.13,3.13,0,0,0,81.2,4l-3.55-.63a.51.51,0,0,0-.59.41L76.38,7.6a3.09,3.09,0,0,0,1.33.59,3.14,3.14,0,0,0,3.65-2.54Z" transform="translate(-0.105 -0.001)" fill="#71c4da"/><path id="패스_151" data-name="패스 151" d="M83.06,11.93a2.48,2.48,0,0,0,.48,2l.64-3.62a2.51,2.51,0,0,0-1.12,1.62Z" transform="translate(-0.104 0.002)" fill="#71c4da"/><path id="패스_152" data-name="패스 152" d="M86,9.9a2.57,2.57,0,0,0-1.79.36l-.64,3.62A2.5,2.5,0,1,0,86,9.9Z" transform="translate(-0.103 0.002)" fill="#7dcde9"/><path id="패스_153" data-name="패스 153" d="M266.17,4.84l2.09,11.66a.47.47,0,0,0-.28.16l-6.56,7.65h0l-3.23-18Z" transform="translate(-0.053 0.005)" fill="#ee2336"/><path id="패스_154" data-name="패스 154" d="M274.19,3.4l3.23,18.056h0l-8.81-4.912a.49.49,0,0,0-.31-.05L266.17,4.841Z" transform="translate(-0.098 -0.001)" fill="#fb3943"/><path id="패스_155" data-name="패스 155" d="M215.77,3.88l4.79,19.48,2.86-4.21L219.84,4.61Z" transform="translate(-0.068 0.005)" fill="#808cdc"/><path id="패스_156" data-name="패스 156" d="M219.84,4.61l3.58,14.54,8.4-12.4Z" transform="translate(-0.066 0.002)" fill="#959fee"/><path id="패스_157" data-name="패스 157" d="M252,6.78h-7.64V25.11H252a.5.5,0,0,0,.5-.51V7.29a.5.5,0,0,0-.5-.51Z" transform="translate(-0.053 0.005)" fill="#0298fe"/><path id="패스_158" data-name="패스 158" d="M240.35,6.78a3.128,3.128,0,0,1-4.11,4.38V24.6a.51.51,0,0,0,.51.51h7.64V6.78Z" transform="translate(-0.053 0.005)" fill="#289dd7"/><path id="패스_159" data-name="패스 159" d="M240.79,8.36a3.12,3.12,0,0,0-.44-1.58h-3.6a.51.51,0,0,0-.51.51v3.87a3.13,3.13,0,0,0,4.55-2.8Z" transform="translate(-0.053 0.001)" fill="#71c4da"/><path id="패스_160" data-name="패스 160" d="M243.58,14.24a2.45,2.45,0,0,0,.81,1.83V12.4a2.48,2.48,0,0,0-.81,1.84Z" transform="translate(-0.053 0.003)" fill="#71c4da"/><path id="패스_161" data-name="패스 161" d="M246.08,11.73a2.47,2.47,0,0,0-1.69.67v3.67a2.43,2.43,0,0,0,1.69.68,2.51,2.51,0,0,0,0-5Z" transform="translate(-0.053 0.003)" fill="#7dcde9"/><path id="패스_162" data-name="패스 162" d="M195.27,4.89l2.09,11.66a.57.57,0,0,0-.28.16l-6.56,7.66h0l-3.23-18Z" transform="translate(-0.075 0.005)" fill="#0ebaa1"/><path id="패스_163" data-name="패스 163" d="M203.29,3.46l3.23,18.006h0l-8.81-4.9a.44.44,0,0,0-.31-.06L195.27,4.891Z" transform="translate(-0.118 0.04)" fill="#18dcbf"/><path id="패스_164" data-name="패스 164" d="M175.17,12.44l-6.65-5.61h-1a.51.51,0,0,0-.51.51v4.4l8.15,6.87Z" transform="translate(-0.081 0.002)" fill="#7dcde9"/><path id="패스_165" data-name="패스 165" d="M167,24.29a.51.51,0,0,0,.51.51h7.63L167,17.94Z" transform="translate(-0.081 0.005)" fill="#7dcde9"/><path id="패스_166" data-name="패스 166" d="M175.17,6.83h-6.65l6.65,5.61Z" transform="translate(-0.081 0.001)" fill="#0298fe"/><path id="패스_167" data-name="패스 167" d="M167,11.74v6.2l8.14,6.86h0V18.61Z" transform="translate(-0.081 0.005)" fill="#0298fe"/><path id="패스_168" data-name="패스 168" d="M183.32,24.29v-5l-8.15-6.87v6.17l7.35,6.19h.29a.51.51,0,0,0,.51-.49Z" transform="translate(-0.124 0.005)" fill="#91d3e5"/><path id="패스_169" data-name="패스 169" d="M183.32,7.34a.51.51,0,0,0-.51-.51h-6.95l7.46,6.3Z" transform="translate(-0.124 0.001)" fill="#91d3e5"/><path id="패스_170" data-name="패스 170" d="M183.32,19.31V13.13l-7.46-6.3h-.69v5.61Z" transform="translate(-0.124 0.002)" fill="#30abef"/><path id="패스_171" data-name="패스 171" d="M175.17,24.8h7.35l-7.35-6.19Z" transform="translate(-0.124 -0.014)" fill="#30abef"/><path id="패스_172" data-name="패스 172" d="M147.39,4.06l4.79,19.49,2.85-4.21L151.45,4.79Z" transform="translate(-0.086 0.005)" fill="#f89841"/><path id="패스_173" data-name="패스 173" d="M151.45,4.79l3.58,14.556,8.4-12.405Z" transform="translate(-0.085 -0.001)" fill="#fec955"/><path id="패스_174" data-name="패스 174" d="M280.072.68a1,1,0,0,0-1.25-.63,109.224,109.224,0,0,1-34.759,5.53A109.714,109.714,0,0,1,210.054.05a1,1,0,0,0-.8.08,109.124,109.124,0,0,1-33.859,5.5A109.1,109.1,0,0,1,140.676.11a.77.77,0,0,0-.26,0,.94.94,0,0,0-.64,0,109.224,109.224,0,0,1-34.749,5.47A109.713,109.713,0,0,1,71.018.05q-.5-.018-1,0A109.164,109.164,0,0,1,35.259,5.58,109.774,109.774,0,0,1,1.3.05,1,1,0,0,0,.68,1.93,111.575,111.575,0,0,0,35.249,7.56h.42A111.415,111.415,0,0,0,70.538,2a111.494,111.494,0,0,0,34.489,5.56h.42A111.3,111.3,0,0,0,140.136,2a111.2,111.2,0,0,0,34.909,5.61h.42A111.325,111.325,0,0,0,209.834,2a111.625,111.625,0,0,0,34.229,5.56h.42a111.544,111.544,0,0,0,35.033-5.638A1,1,0,0,0,280.072.68Z" transform="translate(-0.125 -0.001)" fill="#bad7e7"/></svg>